<mxfile host="app.diagrams.net" modified="2020-09-15T11:39:05.818Z" agent="5.0 (X11)" etag="chR8YY7iLEXRiVqu9qvn" version="13.7.1" type="github" pages="5">
  <diagram id="HQrT9DWSP9B43M96QeA0" name="Page-1">
    <mxGraphModel dx="868" dy="429" grid="1" gridSize="10" guides="1" tooltips="1" connect="1" arrows="1" fold="1" page="1" pageScale="1" pageWidth="850" pageHeight="1100" math="0" shadow="0">
      <root>
        <mxCell id="0" />
        <mxCell id="1" parent="0" />
        <mxCell id="jQXzi1zEREv6GWELov9l-1" value="" style="whiteSpace=wrap;html=1;aspect=fixed;" vertex="1" parent="1">
          <mxGeometry x="210" y="10" width="430" height="430" as="geometry" />
        </mxCell>
        <mxCell id="jQXzi1zEREv6GWELov9l-2" value="page1" style="text;html=1;strokeColor=none;fillColor=none;align=center;verticalAlign=middle;whiteSpace=wrap;rounded=0;" vertex="1" parent="1">
          <mxGeometry x="40" y="30" width="70" height="40" as="geometry" />
        </mxCell>
        <mxCell id="jQXzi1zEREv6GWELov9l-3" value="login" style="text;html=1;strokeColor=none;fillColor=none;align=center;verticalAlign=middle;whiteSpace=wrap;rounded=0;" vertex="1" parent="1">
          <mxGeometry x="520" y="30" width="40" height="20" as="geometry" />
        </mxCell>
        <mxCell id="jQXzi1zEREv6GWELov9l-4" value="signup" style="text;html=1;strokeColor=none;fillColor=none;align=center;verticalAlign=middle;whiteSpace=wrap;rounded=0;" vertex="1" parent="1">
          <mxGeometry x="570" y="30" width="40" height="20" as="geometry" />
        </mxCell>
        <mxCell id="jQXzi1zEREv6GWELov9l-5" value="background IMage" style="text;html=1;strokeColor=none;fillColor=none;align=center;verticalAlign=middle;whiteSpace=wrap;rounded=0;" vertex="1" parent="1">
          <mxGeometry x="370" y="207.5" width="120" height="35" as="geometry" />
        </mxCell>
        <mxCell id="jQXzi1zEREv6GWELov9l-6" value="" style="ellipse;whiteSpace=wrap;html=1;aspect=fixed;" vertex="1" parent="1">
          <mxGeometry x="220" y="15" width="50" height="50" as="geometry" />
        </mxCell>
        <mxCell id="jQXzi1zEREv6GWELov9l-7" value="logo of app" style="text;html=1;strokeColor=none;fillColor=none;align=center;verticalAlign=middle;whiteSpace=wrap;rounded=0;" vertex="1" parent="1">
          <mxGeometry x="225" y="30" width="40" height="20" as="geometry" />
        </mxCell>
      </root>
    </mxGraphModel>
  </diagram>
  <diagram id="ZSR3_8CIwuRaOFK2hM9X" name="Page-2">
    <mxGraphModel dx="1718" dy="429" grid="1" gridSize="10" guides="1" tooltips="1" connect="1" arrows="1" fold="1" page="1" pageScale="1" pageWidth="850" pageHeight="1100" math="0" shadow="0">
      <root>
        <mxCell id="_BAKUXjnAUmzLKUxTt4n-0" />
        <mxCell id="_BAKUXjnAUmzLKUxTt4n-1" parent="_BAKUXjnAUmzLKUxTt4n-0" />
        <mxCell id="_BAKUXjnAUmzLKUxTt4n-2" value="page 2" style="text;html=1;strokeColor=none;fillColor=none;align=center;verticalAlign=middle;whiteSpace=wrap;rounded=0;" vertex="1" parent="_BAKUXjnAUmzLKUxTt4n-1">
          <mxGeometry x="-10" y="420" width="90" height="30" as="geometry" />
        </mxCell>
        <mxCell id="_BAKUXjnAUmzLKUxTt4n-3" value="" style="ellipse;whiteSpace=wrap;html=1;aspect=fixed;" vertex="1" parent="_BAKUXjnAUmzLKUxTt4n-1">
          <mxGeometry x="20" y="10" width="60" height="60" as="geometry" />
        </mxCell>
        <mxCell id="_BAKUXjnAUmzLKUxTt4n-4" value="logo" style="text;html=1;strokeColor=none;fillColor=none;align=center;verticalAlign=middle;whiteSpace=wrap;rounded=0;" vertex="1" parent="_BAKUXjnAUmzLKUxTt4n-1">
          <mxGeometry x="30" y="30" width="40" height="20" as="geometry" />
        </mxCell>
        <mxCell id="_BAKUXjnAUmzLKUxTt4n-5" value="" style="whiteSpace=wrap;html=1;aspect=fixed;" vertex="1" parent="_BAKUXjnAUmzLKUxTt4n-1">
          <mxGeometry x="110" y="10" width="430" height="430" as="geometry" />
        </mxCell>
        <mxCell id="_BAKUXjnAUmzLKUxTt4n-6" value="" style="whiteSpace=wrap;html=1;aspect=fixed;" vertex="1" parent="_BAKUXjnAUmzLKUxTt4n-1">
          <mxGeometry x="550" y="10" width="300" height="300" as="geometry" />
        </mxCell>
        <mxCell id="_BAKUXjnAUmzLKUxTt4n-9" value="" style="line;strokeWidth=2;html=1;" vertex="1" parent="_BAKUXjnAUmzLKUxTt4n-1">
          <mxGeometry x="110" y="60" width="440" height="10" as="geometry" />
        </mxCell>
        <mxCell id="_BAKUXjnAUmzLKUxTt4n-11" value="" style="line;strokeWidth=2;direction=south;html=1;" vertex="1" parent="_BAKUXjnAUmzLKUxTt4n-1">
          <mxGeometry x="415" y="10" width="10" height="50" as="geometry" />
        </mxCell>
        <mxCell id="_BAKUXjnAUmzLKUxTt4n-12" value="profile ans user management options" style="text;html=1;strokeColor=none;fillColor=none;align=center;verticalAlign=middle;whiteSpace=wrap;rounded=0;" vertex="1" parent="_BAKUXjnAUmzLKUxTt4n-1">
          <mxGeometry x="420" y="10" width="120" height="50" as="geometry" />
        </mxCell>
        <mxCell id="_BAKUXjnAUmzLKUxTt4n-13" value="DASHOARD" style="text;html=1;strokeColor=none;fillColor=none;align=center;verticalAlign=middle;whiteSpace=wrap;rounded=0;" vertex="1" parent="_BAKUXjnAUmzLKUxTt4n-1">
          <mxGeometry x="190" y="180" width="250" height="160" as="geometry" />
        </mxCell>
        <mxCell id="_BAKUXjnAUmzLKUxTt4n-14" style="edgeStyle=orthogonalEdgeStyle;rounded=0;orthogonalLoop=1;jettySize=auto;html=1;exitX=1;exitY=0.75;exitDx=0;exitDy=0;entryX=0.75;entryY=1;entryDx=0;entryDy=0;" edge="1" parent="_BAKUXjnAUmzLKUxTt4n-1" source="_BAKUXjnAUmzLKUxTt4n-13" target="_BAKUXjnAUmzLKUxTt4n-13">
          <mxGeometry relative="1" as="geometry" />
        </mxCell>
        <mxCell id="_BAKUXjnAUmzLKUxTt4n-15" value="ACTIVE TASKS IF ANY" style="text;html=1;strokeColor=none;fillColor=none;align=center;verticalAlign=middle;whiteSpace=wrap;rounded=0;" vertex="1" parent="_BAKUXjnAUmzLKUxTt4n-1">
          <mxGeometry x="570" y="20" width="140" height="90" as="geometry" />
        </mxCell>
        <mxCell id="_BAKUXjnAUmzLKUxTt4n-16" value="SMALL ADS" style="text;html=1;strokeColor=none;fillColor=none;align=center;verticalAlign=middle;whiteSpace=wrap;rounded=0;" vertex="1" parent="_BAKUXjnAUmzLKUxTt4n-1">
          <mxGeometry x="680" y="180" width="100" height="60" as="geometry" />
        </mxCell>
        <mxCell id="09VAXR0UQGpOQ7HCfpiO-0" value="PHUB ads" style="text;html=1;strokeColor=none;fillColor=none;align=center;verticalAlign=middle;whiteSpace=wrap;rounded=0;" vertex="1" parent="_BAKUXjnAUmzLKUxTt4n-1">
          <mxGeometry x="590" y="130" width="90" height="80" as="geometry" />
        </mxCell>
      </root>
    </mxGraphModel>
  </diagram>
  <diagram id="Y3lrui83OWvQ9KkXICpx" name="Page-3">
    <mxGraphModel dx="868" dy="429" grid="1" gridSize="10" guides="1" tooltips="1" connect="1" arrows="1" fold="1" page="1" pageScale="1" pageWidth="850" pageHeight="1100" math="0" shadow="0">
      <root>
        <mxCell id="PwlhDRAhmNxscmq8nQ95-0" />
        <mxCell id="PwlhDRAhmNxscmq8nQ95-1" parent="PwlhDRAhmNxscmq8nQ95-0" />
        <mxCell id="PwlhDRAhmNxscmq8nQ95-2" value="" style="whiteSpace=wrap;html=1;aspect=fixed;" vertex="1" parent="PwlhDRAhmNxscmq8nQ95-1">
          <mxGeometry x="200" y="20" width="410" height="410" as="geometry" />
        </mxCell>
        <mxCell id="Irku4OcXx5S3YwUcN5UE-0" value="" style="line;strokeWidth=2;html=1;" vertex="1" parent="PwlhDRAhmNxscmq8nQ95-1">
          <mxGeometry x="200" y="70" width="410" height="10" as="geometry" />
        </mxCell>
        <mxCell id="Irku4OcXx5S3YwUcN5UE-1" value="" style="line;strokeWidth=2;direction=south;html=1;" vertex="1" parent="PwlhDRAhmNxscmq8nQ95-1">
          <mxGeometry x="400" y="20" width="10" height="50" as="geometry" />
        </mxCell>
        <mxCell id="Irku4OcXx5S3YwUcN5UE-2" value="DONE JOBS" style="text;html=1;strokeColor=none;fillColor=none;align=center;verticalAlign=middle;whiteSpace=wrap;rounded=0;" vertex="1" parent="PwlhDRAhmNxscmq8nQ95-1">
          <mxGeometry x="420" y="30" width="160" height="40" as="geometry" />
        </mxCell>
        <mxCell id="Irku4OcXx5S3YwUcN5UE-3" value="ACTVE JOBS" style="text;html=1;strokeColor=none;fillColor=none;align=center;verticalAlign=middle;whiteSpace=wrap;rounded=0;" vertex="1" parent="PwlhDRAhmNxscmq8nQ95-1">
          <mxGeometry x="220" y="35" width="140" height="35" as="geometry" />
        </mxCell>
        <mxCell id="Irku4OcXx5S3YwUcN5UE-4" value="undecided" style="text;html=1;strokeColor=none;fillColor=none;align=center;verticalAlign=middle;whiteSpace=wrap;rounded=0;" vertex="1" parent="PwlhDRAhmNxscmq8nQ95-1">
          <mxGeometry x="250" y="120" width="300" height="230" as="geometry" />
        </mxCell>
        <mxCell id="5p9QYjxADkp0_HXHO3ji-0" value="" style="ellipse;whiteSpace=wrap;html=1;aspect=fixed;" vertex="1" parent="PwlhDRAhmNxscmq8nQ95-1">
          <mxGeometry x="20" y="10" width="60" height="60" as="geometry" />
        </mxCell>
        <mxCell id="5p9QYjxADkp0_HXHO3ji-1" value="logo" style="text;html=1;strokeColor=none;fillColor=none;align=center;verticalAlign=middle;whiteSpace=wrap;rounded=0;" vertex="1" parent="PwlhDRAhmNxscmq8nQ95-1">
          <mxGeometry x="30" y="30" width="40" height="20" as="geometry" />
        </mxCell>
        <mxCell id="0ATk73janI3iBQdpK6vp-0" value="page 3" style="text;html=1;strokeColor=none;fillColor=none;align=center;verticalAlign=middle;whiteSpace=wrap;rounded=0;" vertex="1" parent="PwlhDRAhmNxscmq8nQ95-1">
          <mxGeometry x="50" y="110" width="80" height="70" as="geometry" />
        </mxCell>
      </root>
    </mxGraphModel>
  </diagram>
  <diagram id="R_MEVshob-6TjpQ_GRhp" name="Page-4">
    <mxGraphModel dx="868" dy="429" grid="1" gridSize="10" guides="1" tooltips="1" connect="1" arrows="1" fold="1" page="1" pageScale="1" pageWidth="850" pageHeight="1100" math="0" shadow="0">
      <root>
        <mxCell id="ida1f6x9_bhDTnMresw2-0" />
        <mxCell id="ida1f6x9_bhDTnMresw2-1" parent="ida1f6x9_bhDTnMresw2-0" />
        <mxCell id="ida1f6x9_bhDTnMresw2-2" value="" style="whiteSpace=wrap;html=1;aspect=fixed;" vertex="1" parent="ida1f6x9_bhDTnMresw2-1">
          <mxGeometry x="130" y="50" width="380" height="380" as="geometry" />
        </mxCell>
        <mxCell id="ida1f6x9_bhDTnMresw2-3" value="" style="ellipse;whiteSpace=wrap;html=1;aspect=fixed;" vertex="1" parent="ida1f6x9_bhDTnMresw2-1">
          <mxGeometry x="20" y="10" width="60" height="60" as="geometry" />
        </mxCell>
        <mxCell id="ida1f6x9_bhDTnMresw2-4" value="logo" style="text;html=1;strokeColor=none;fillColor=none;align=center;verticalAlign=middle;whiteSpace=wrap;rounded=0;" vertex="1" parent="ida1f6x9_bhDTnMresw2-1">
          <mxGeometry x="30" y="30" width="40" height="20" as="geometry" />
        </mxCell>
        <mxCell id="ida1f6x9_bhDTnMresw2-5" value="LOGIN PAGE" style="text;html=1;strokeColor=none;fillColor=none;align=center;verticalAlign=middle;whiteSpace=wrap;rounded=0;" vertex="1" parent="ida1f6x9_bhDTnMresw2-1">
          <mxGeometry x="210" y="10" width="130" height="20" as="geometry" />
        </mxCell>
        <mxCell id="ida1f6x9_bhDTnMresw2-6" value="name" style="rounded=0;whiteSpace=wrap;html=1;" vertex="1" parent="ida1f6x9_bhDTnMresw2-1">
          <mxGeometry x="160" y="70" width="120" height="60" as="geometry" />
        </mxCell>
        <mxCell id="ida1f6x9_bhDTnMresw2-7" value="password" style="rounded=0;whiteSpace=wrap;html=1;" vertex="1" parent="ida1f6x9_bhDTnMresw2-1">
          <mxGeometry x="160" y="190" width="120" height="60" as="geometry" />
        </mxCell>
        <mxCell id="ida1f6x9_bhDTnMresw2-8" value="google login n stuff" style="ellipse;whiteSpace=wrap;html=1;" vertex="1" parent="ida1f6x9_bhDTnMresw2-1">
          <mxGeometry x="370" y="70" width="120" height="80" as="geometry" />
        </mxCell>
        <mxCell id="ida1f6x9_bhDTnMresw2-9" value="new to the app" style="text;html=1;strokeColor=none;fillColor=none;align=center;verticalAlign=middle;whiteSpace=wrap;rounded=0;" vertex="1" parent="ida1f6x9_bhDTnMresw2-1">
          <mxGeometry x="380" y="320" width="130" height="60" as="geometry" />
        </mxCell>
        <mxCell id="ida1f6x9_bhDTnMresw2-10" value="sign up" style="text;html=1;strokeColor=none;fillColor=none;align=center;verticalAlign=middle;whiteSpace=wrap;rounded=0;" vertex="1" parent="ida1f6x9_bhDTnMresw2-1">
          <mxGeometry x="412.5" y="360" width="65" height="20" as="geometry" />
        </mxCell>
      </root>
    </mxGraphModel>
  </diagram>
  <diagram id="1VkR11fBHQ50PxG8-Jtl" name="Page-5">
    <mxGraphModel dx="868" dy="429" grid="1" gridSize="10" guides="1" tooltips="1" connect="1" arrows="1" fold="1" page="1" pageScale="1" pageWidth="850" pageHeight="1100" math="0" shadow="0">
      <root>
        <mxCell id="DJm5CWlQXOiFd_JZ_UQz-0" />
        <mxCell id="DJm5CWlQXOiFd_JZ_UQz-1" parent="DJm5CWlQXOiFd_JZ_UQz-0" />
      </root>
    </mxGraphModel>
  </diagram>
</mxfile>
